<?xml version="1.0" standalone="no"?>
<!DOCTYPE svg PUBLIC "-//W3C//DTD SVG 20010904//EN"
 "http://www.w3.org/TR/2001/REC-SVG-20010904/DTD/svg10.dtd">
<svg version="1.0" xmlns="http://www.w3.org/2000/svg"
 width="68.000000pt" height="59.000000pt" viewBox="0 0 68.000000 59.000000"
 preserveAspectRatio="xMidYMid meet">
<metadata>
Created by potrace 1.10, written by Peter Selinger 2001-2011
</metadata>
<g transform="translate(0.000000,59.000000) scale(0.100000,-0.100000)"
fill="#000000" stroke="none">
<path d="M186 385 c-65 -79 -127 -152 -137 -161 -28 -25 -23 -33 21 -32 36 0
45 6 82 52 23 28 45 55 50 60 5 6 19 -1 36 -17 l28 -27 22 29 21 29 -25 23
c-29 28 -29 27 2 63 l25 29 28 -27 27 -26 23 26 c12 14 21 27 19 27 -2 1 -26
23 -53 49 l-50 47 -119 -144z m159 75 c29 -30 29 -55 0 -26 -24 24 -43 20 -76
-15 -32 -34 -37 -60 -14 -79 17 -14 20 -40 4 -40 -6 0 -17 7 -25 15 -9 8 -20
15 -25 15 -11 0 -46 -34 -87 -84 -13 -15 -26 -26 -29 -23 -4 5 115 158 137
177 3 3 20 24 39 48 18 23 36 42 40 42 4 0 20 -13 36 -30z"/>
<path d="M468 456 c-10 -13 -54 -67 -98 -120 -80 -96 -80 -96 -63 -122 l16
-25 158 3 158 3 -76 77 -76 76 -18 -21 c-17 -22 -17 -23 19 -59 34 -36 59 -46
32 -13 -7 8 -8 15 -2 15 5 0 15 -7 22 -15 7 -8 19 -15 26 -15 8 0 14 -4 14 -9
0 -17 -24 -19 -59 -5 -18 8 -62 14 -97 14 l-64 0 84 97 c81 95 83 98 67 120
-20 28 -22 28 -43 -1z m15 -39 c-10 -12 -44 -55 -76 -94 -32 -40 -56 -76 -53
-81 3 -6 -1 -15 -9 -22 -12 -10 -16 -9 -21 4 -4 10 16 42 58 91 34 42 72 87
82 101 11 13 24 24 29 24 5 0 0 -10 -10 -23z m42 -127 c3 -5 1 -10 -4 -10 -6
0 -11 5 -11 10 0 6 2 10 4 10 3 0 8 -4 11 -10z m-132 -77 c-7 -2 -19 -2 -25 0
-7 3 -2 5 12 5 14 0 19 -2 13 -5z m54 1 c-3 -3 -12 -4 -19 -1 -8 3 -5 6 6 6
11 1 17 -2 13 -5z m56 -1 c-7 -2 -21 -2 -30 0 -10 3 -4 5 12 5 17 0 24 -2 18
-5z"/>
<path d="M21 123 c0 -21 3 -31 6 -23 3 8 11 18 17 22 8 5 7 8 -1 8 -19 0 -16
18 5 23 13 4 11 5 -5 6 -20 1 -23 -4 -22 -36z"/>
<path d="M284 148 c-4 -6 1 -17 11 -25 17 -12 17 -13 2 -13 -9 0 -17 -4 -17
-10 0 -5 7 -10 15 -10 21 0 31 30 14 41 -12 8 -12 11 1 19 13 8 13 10 -2 10
-9 0 -20 -5 -24 -12z"/>
<path d="M91 118 c1 -18 3 -25 6 -15 5 18 5 18 18 0 13 -16 14 -15 11 12 -2
18 -10 31 -20 33 -12 3 -16 -4 -15 -30z"/>
<path d="M150 125 c0 -14 7 -28 15 -32 22 -8 33 6 15 17 -13 9 -13 10 0 10 12
0 13 2 1 9 -11 7 -11 9 0 14 8 3 4 6 -8 6 -18 1 -23 -4 -23 -24z"/>
<path d="M220 120 c0 -20 5 -30 15 -30 8 0 15 5 15 10 0 6 -6 10 -12 10 -9 0
-8 4 2 10 13 9 13 10 0 10 -13 0 -13 1 0 10 13 8 12 10 -2 10 -13 0 -18 -8
-18 -30z"/>
<path d="M359 141 c8 -5 11 -16 8 -25 -3 -8 -2 -18 2 -21 5 -2 11 9 13 25 4
25 1 30 -16 30 -16 0 -18 -2 -7 -9z"/>
<path d="M427 120 c3 -14 7 -27 9 -29 6 -7 11 2 17 29 5 21 3 26 -13 26 -16 0
-18 -5 -13 -26z"/>
<path d="M491 123 c-1 -23 3 -33 14 -33 8 0 15 5 15 10 0 6 -4 10 -9 10 -5 0
-12 10 -14 23 -3 16 -5 13 -6 -10z"/>
<path d="M550 120 c0 -23 4 -30 20 -30 25 0 27 20 3 21 -15 0 -15 2 2 9 20 9
20 9 0 10 -20 1 -20 1 0 10 19 8 19 9 -2 9 -19 1 -23 -4 -23 -29z"/>
<path d="M610 121 c0 -33 16 -42 23 -13 4 16 5 16 6 0 0 -10 5 -18 10 -18 5 0
8 12 7 28 -2 19 -10 28 -25 30 -18 3 -21 -2 -21 -27z"/>
</g>
</svg>
